<mxfile host="app.diagrams.net" agent="Mozilla/5.0 (Windows NT 10.0; Win64; x64) AppleWebKit/537.36 (KHTML, like Gecko) Chrome/137.0.0.0 Safari/537.36" version="27.1.4">
  <diagram name="Страница — 1" id="rpkzHY-mQJiHNuiaf8yk">
    <mxGraphModel dx="1042" dy="527" grid="1" gridSize="10" guides="1" tooltips="1" connect="1" arrows="1" fold="1" page="1" pageScale="1" pageWidth="827" pageHeight="1169" math="0" shadow="0">
      <root>
        <mxCell id="0" />
        <mxCell id="1" parent="0" />
        <mxCell id="0UE7YF7_eURi2l1tw7Sq-16" style="edgeStyle=orthogonalEdgeStyle;rounded=0;orthogonalLoop=1;jettySize=auto;html=1;" edge="1" parent="1" source="0UE7YF7_eURi2l1tw7Sq-1" target="0UE7YF7_eURi2l1tw7Sq-2">
          <mxGeometry relative="1" as="geometry" />
        </mxCell>
        <mxCell id="0UE7YF7_eURi2l1tw7Sq-1" value="&lt;font style=&quot;vertical-align: inherit;&quot;&gt;&lt;font style=&quot;vertical-align: inherit;&quot;&gt;Екран програшу&lt;/font&gt;&lt;/font&gt;" style="rounded=1;whiteSpace=wrap;html=1;" vertex="1" parent="1">
          <mxGeometry x="354" y="40" width="120" height="60" as="geometry" />
        </mxCell>
        <mxCell id="0UE7YF7_eURi2l1tw7Sq-17" style="edgeStyle=orthogonalEdgeStyle;rounded=0;orthogonalLoop=1;jettySize=auto;html=1;" edge="1" parent="1" source="0UE7YF7_eURi2l1tw7Sq-2" target="0UE7YF7_eURi2l1tw7Sq-4">
          <mxGeometry relative="1" as="geometry" />
        </mxCell>
        <mxCell id="0UE7YF7_eURi2l1tw7Sq-2" value="&lt;font style=&quot;vertical-align: inherit;&quot;&gt;&lt;font style=&quot;vertical-align: inherit;&quot;&gt;Відображення GAME OVER&lt;/font&gt;&lt;/font&gt;" style="rounded=0;whiteSpace=wrap;html=1;" vertex="1" parent="1">
          <mxGeometry x="354" y="130" width="120" height="60" as="geometry" />
        </mxCell>
        <mxCell id="0UE7YF7_eURi2l1tw7Sq-19" style="edgeStyle=orthogonalEdgeStyle;rounded=0;orthogonalLoop=1;jettySize=auto;html=1;entryX=0.5;entryY=0;entryDx=0;entryDy=0;" edge="1" parent="1" source="0UE7YF7_eURi2l1tw7Sq-3" target="0UE7YF7_eURi2l1tw7Sq-5">
          <mxGeometry relative="1" as="geometry" />
        </mxCell>
        <mxCell id="0UE7YF7_eURi2l1tw7Sq-3" value="&lt;font style=&quot;vertical-align: inherit;&quot;&gt;&lt;font style=&quot;vertical-align: inherit;&quot;&gt;Оновлення рекорду&lt;/font&gt;&lt;/font&gt;" style="rounded=0;whiteSpace=wrap;html=1;" vertex="1" parent="1">
          <mxGeometry x="354" y="310" width="120" height="60" as="geometry" />
        </mxCell>
        <mxCell id="0UE7YF7_eURi2l1tw7Sq-18" style="edgeStyle=orthogonalEdgeStyle;rounded=0;orthogonalLoop=1;jettySize=auto;html=1;entryX=0.5;entryY=0;entryDx=0;entryDy=0;" edge="1" parent="1" source="0UE7YF7_eURi2l1tw7Sq-4" target="0UE7YF7_eURi2l1tw7Sq-3">
          <mxGeometry relative="1" as="geometry" />
        </mxCell>
        <mxCell id="0UE7YF7_eURi2l1tw7Sq-4" value="&lt;font style=&quot;vertical-align: inherit;&quot;&gt;&lt;font style=&quot;vertical-align: inherit;&quot;&gt;Відображення кількості з&#39;їдених яблук&lt;/font&gt;&lt;/font&gt;" style="rounded=0;whiteSpace=wrap;html=1;" vertex="1" parent="1">
          <mxGeometry x="354" y="220" width="120" height="60" as="geometry" />
        </mxCell>
        <mxCell id="0UE7YF7_eURi2l1tw7Sq-20" style="edgeStyle=orthogonalEdgeStyle;rounded=0;orthogonalLoop=1;jettySize=auto;html=1;entryX=0.5;entryY=0;entryDx=0;entryDy=0;" edge="1" parent="1" source="0UE7YF7_eURi2l1tw7Sq-5" target="0UE7YF7_eURi2l1tw7Sq-6">
          <mxGeometry relative="1" as="geometry" />
        </mxCell>
        <mxCell id="0UE7YF7_eURi2l1tw7Sq-5" value="&lt;font style=&quot;vertical-align: inherit;&quot;&gt;&lt;font style=&quot;vertical-align: inherit;&quot;&gt;Відображення рекорду&lt;/font&gt;&lt;/font&gt;" style="rounded=0;whiteSpace=wrap;html=1;" vertex="1" parent="1">
          <mxGeometry x="354" y="400" width="120" height="60" as="geometry" />
        </mxCell>
        <mxCell id="0UE7YF7_eURi2l1tw7Sq-21" style="edgeStyle=orthogonalEdgeStyle;rounded=0;orthogonalLoop=1;jettySize=auto;html=1;entryX=0.5;entryY=0;entryDx=0;entryDy=0;" edge="1" parent="1" source="0UE7YF7_eURi2l1tw7Sq-6" target="0UE7YF7_eURi2l1tw7Sq-10">
          <mxGeometry relative="1" as="geometry" />
        </mxCell>
        <mxCell id="0UE7YF7_eURi2l1tw7Sq-6" value="&lt;font style=&quot;vertical-align: inherit;&quot;&gt;&lt;font style=&quot;vertical-align: inherit;&quot;&gt;Показати кнопки&lt;/font&gt;&lt;/font&gt;" style="rounded=0;whiteSpace=wrap;html=1;" vertex="1" parent="1">
          <mxGeometry x="354" y="490" width="120" height="60" as="geometry" />
        </mxCell>
        <mxCell id="0UE7YF7_eURi2l1tw7Sq-22" style="edgeStyle=orthogonalEdgeStyle;rounded=0;orthogonalLoop=1;jettySize=auto;html=1;entryX=0.5;entryY=0;entryDx=0;entryDy=0;" edge="1" parent="1" source="0UE7YF7_eURi2l1tw7Sq-10" target="0UE7YF7_eURi2l1tw7Sq-12">
          <mxGeometry relative="1" as="geometry">
            <Array as="points">
              <mxPoint x="277" y="625" />
            </Array>
          </mxGeometry>
        </mxCell>
        <mxCell id="0UE7YF7_eURi2l1tw7Sq-23" style="edgeStyle=orthogonalEdgeStyle;rounded=0;orthogonalLoop=1;jettySize=auto;html=1;entryX=0.5;entryY=0;entryDx=0;entryDy=0;exitX=1;exitY=0.5;exitDx=0;exitDy=0;" edge="1" parent="1" source="0UE7YF7_eURi2l1tw7Sq-10" target="0UE7YF7_eURi2l1tw7Sq-14">
          <mxGeometry relative="1" as="geometry" />
        </mxCell>
        <mxCell id="0UE7YF7_eURi2l1tw7Sq-10" value="&lt;font style=&quot;vertical-align: inherit;&quot;&gt;&lt;font style=&quot;vertical-align: inherit;&quot;&gt;Очікування вибору&lt;/font&gt;&lt;/font&gt;" style="rhombus;whiteSpace=wrap;html=1;" vertex="1" parent="1">
          <mxGeometry x="337" y="584.5" width="154" height="80" as="geometry" />
        </mxCell>
        <mxCell id="0UE7YF7_eURi2l1tw7Sq-24" style="edgeStyle=orthogonalEdgeStyle;rounded=0;orthogonalLoop=1;jettySize=auto;html=1;entryX=0.5;entryY=0;entryDx=0;entryDy=0;" edge="1" parent="1" source="0UE7YF7_eURi2l1tw7Sq-12" target="0UE7YF7_eURi2l1tw7Sq-13">
          <mxGeometry relative="1" as="geometry" />
        </mxCell>
        <mxCell id="0UE7YF7_eURi2l1tw7Sq-12" value="&lt;font style=&quot;vertical-align: inherit;&quot;&gt;&lt;font style=&quot;vertical-align: inherit;&quot;&gt;Скидання гри&lt;/font&gt;&lt;/font&gt;" style="rounded=0;whiteSpace=wrap;html=1;" vertex="1" parent="1">
          <mxGeometry x="217" y="680" width="120" height="60" as="geometry" />
        </mxCell>
        <mxCell id="0UE7YF7_eURi2l1tw7Sq-13" value="&lt;font style=&quot;vertical-align: inherit;&quot;&gt;&lt;font style=&quot;vertical-align: inherit;&quot;&gt;Нова гра&lt;/font&gt;&lt;/font&gt;" style="rounded=0;whiteSpace=wrap;html=1;" vertex="1" parent="1">
          <mxGeometry x="217" y="780" width="120" height="60" as="geometry" />
        </mxCell>
        <mxCell id="0UE7YF7_eURi2l1tw7Sq-25" style="edgeStyle=orthogonalEdgeStyle;rounded=0;orthogonalLoop=1;jettySize=auto;html=1;entryX=0.5;entryY=0;entryDx=0;entryDy=0;" edge="1" parent="1" source="0UE7YF7_eURi2l1tw7Sq-14" target="0UE7YF7_eURi2l1tw7Sq-15">
          <mxGeometry relative="1" as="geometry" />
        </mxCell>
        <mxCell id="0UE7YF7_eURi2l1tw7Sq-14" value="&lt;font style=&quot;vertical-align: inherit;&quot;&gt;&lt;font style=&quot;vertical-align: inherit;&quot;&gt;Повернення до меню&lt;/font&gt;&lt;/font&gt;" style="rounded=0;whiteSpace=wrap;html=1;" vertex="1" parent="1">
          <mxGeometry x="491" y="680" width="120" height="60" as="geometry" />
        </mxCell>
        <mxCell id="0UE7YF7_eURi2l1tw7Sq-15" value="&lt;font style=&quot;vertical-align: inherit;&quot;&gt;&lt;font style=&quot;vertical-align: inherit;&quot;&gt;Головне меню&lt;/font&gt;&lt;/font&gt;" style="rounded=0;whiteSpace=wrap;html=1;" vertex="1" parent="1">
          <mxGeometry x="491" y="780" width="120" height="60" as="geometry" />
        </mxCell>
      </root>
    </mxGraphModel>
  </diagram>
</mxfile>
